<svg viewBox="0 0 44 44">
  <path fill="currentColor" d="M39.3 44H4.7A4.7 4.7 0 0 1 0 39.3V4.7C0 2.1 2.1 0 4.7 0h34.6C41.9 0 44 2.1 44 4.7v34.5c0 2.6-2.1 4.8-4.7 4.8zm-7.1-25.9c-.8-.1-1.7.2-2.3.7a2 2 0 0 0-.8 1.9c0 .5.1.9.4 1.4.2.4.6.7 1 .8l-.7.6a1 1 0 0 0-.3.7l.2.7c.1.2.3.3.6.4-.5.1-.9.3-1.3.7-.3.3-.4.7-.4 1.2 0 .6.3 1.2.8 1.6a5 5 0 0 0 2.4.6 6 6 0 0 0 3.2-.7c.7-.4 1.1-1.2 1.1-2.1a2 2 0 0 0-.7-1.6c-.6-.4-1.2-.6-1.9-.5h-1.3c-.8 0-1.1-.2-1.1-.4s.1-.4.3-.5h.7c.8 0 1.7-.2 2.4-.7.6-.5.9-1.2.9-1.9a2 2 0 0 0-.3-1.1l1.2-.3v-1.1h-2.7l-.6-.1c-.3-.3-.6-.3-.8-.3zm-8.1 0c-1-.1-2 .3-2.7 1-.7.8-1 1.9-1 2.9 0 .7.1 1.4.5 2.1a3 3 0 0 0 1.3 1.4c.6.3 1.3.5 1.9.5 1 .1 2-.3 2.7-1.1.7-.8 1-1.9 1-2.9a4 4 0 0 0-.5-2.1 3 3 0 0 0-1.3-1.4c-.6-.2-1.2-.4-1.9-.4zm-14.5 7h.1c.5.6 1.3 1 2.1 1s1.6-.4 2.1-1c.6-.9.9-1.9.8-2.9.1-1-.2-2-.8-2.9a2.7 2.7 0 0 0-4.3 0h-.1l.1-1.5v-2.5H7.5v10.6h1.6zm7-9.8v10.6h2.1V15.3zm15.2 12.6a5 5 0 0 1-1.2-.2c-.3-.1-.4-.4-.4-.7 0-.3.1-.6.4-.7.3-.2.6-.3 1-.3h1.1c.4 0 .8 0 1.2.2.2.1.4.3.4.6 0 .4-.3.7-.6.8l-1.9.3zm-7.7-3.5c-.5 0-.9-.2-1.2-.6-.3-.5-.4-1.1-.4-1.7 0-.6.1-1.2.4-1.7.3-.4.7-.6 1.2-.6s.9.2 1.2.6c.3.5.4 1.1.4 1.7 0 .6-.1 1.2-.4 1.7-.3.4-.7.6-1.2.6zm-12.8 0c-.5 0-.9-.2-1.2-.5-.3-.5-.4-1.2-.4-1.8v-.2c0-.5.1-1.1.4-1.6.3-.3.7-.5 1.1-.5.4 0 .8.2 1 .6.3.5.4 1.1.4 1.7 0 .6-.1 1.2-.4 1.7-.1.3-.5.6-.9.6zm20.9-2.3c-.3 0-.7-.1-.9-.4-.2-.3-.3-.6-.3-1 0-.9.4-1.4 1.1-1.4.7 0 1.1.5 1.1 1.4 0 .3-.1.7-.3 1-.1.3-.4.4-.7.4z"/>
</svg>
