<svg viewBox="0 0 1033.5 1143.1">
  <style id="style9" type="text/css">.st3,.st5,.st7{fill:none;stroke:#fff;stroke-linecap:round;stroke-linejoin:round;stroke-miterlimit:10}.st3{stroke-width:2.5;stroke-dasharray:0,4.012}.st5,.st7{stroke-width:2}.st7{stroke-dasharray:0,6.053}</style>
  <path id="line11" fill="none" stroke="#fff" stroke-dasharray="0 4" stroke-linecap="round" stroke-linejoin="round" stroke-miterlimit="10" stroke-width="2" d="M952.9 88.6v333"/>
  <g id="g23" transform="translate(-187.3 -117.5)">
    <path id="path13" fill="none" stroke="#fff" stroke-dasharray="0 4" stroke-linecap="round" stroke-linejoin="round" stroke-miterlimit="10" stroke-width="2.5" d="M661.2 1166.9C451.8 1042.2 190.1 861.1 189 543.1"/>
    <path id="line15" fill="none" stroke="#fff" stroke-dasharray="0 4" stroke-linecap="round" stroke-linejoin="round" stroke-miterlimit="10" stroke-width="2.5" d="M189 537.1v-333"/>
    <path id="path17" d="M192.8 200.7c96.8-36.3 245.2-81 469.8-81.2" class="st3"/>
    <path id="path19" d="M668.6 119.5c227.4.6 384.2 49.5 469.7 81.9" class="st3"/>
    <path id="path21" fill="none" stroke="#fff" stroke-dasharray="0 4" stroke-linecap="round" stroke-linejoin="round" stroke-miterlimit="10" stroke-width="2.5" d="M1140.2 545.1c-2.3 320.3-274.8 505.7-473.8 622.9"/>
  </g>
  <path id="line25" d="M477.3 1051.5h0" class="st5"/>
  <path id="line27" d="M952.9 423.6h0" class="st5"/>
  <path id="line29" d="M952.9 84.6h0" class="st5"/>
  <path id="line31" d="M477.3 2h0" class="st5"/>
  <path id="line33" d="M1.7 84.6h0" class="st5"/>
  <path id="path35" fill="none" stroke="#fff" stroke-dasharray="0 6" stroke-linecap="round" stroke-linejoin="round" stroke-miterlimit="10" stroke-width="2" d="M550.7 1050C341.9 925.2 81.9 744.5 80.3 428"/>
  <path id="line37" d="M80.3 419V89.2" class="st7"/>
  <path id="path39" fill="none" stroke="#fff" stroke-dasharray="0 6" stroke-linecap="round" stroke-linejoin="round" stroke-miterlimit="10" stroke-width="2" d="M85.9 84c96.7-36.2 244.4-80 467-80.5"/>
  <path id="path41" fill="none" stroke="#fff" stroke-dasharray="0 6" stroke-linecap="round" stroke-linejoin="round" stroke-miterlimit="10" stroke-width="2" d="M561.9 3.5c225.5.8 381.3 49.2 466.8 81.6"/>
  <path id="line43" d="M1031.5 92.2v329.9" class="st7"/>
  <path id="path45" fill="none" stroke="#fff" stroke-dasharray="0 6" stroke-linecap="round" stroke-linejoin="round" stroke-miterlimit="10" stroke-width="2" d="M1031.4 431.1c-3.4 318.6-274.4 503.4-473 620.4"/>
  <path id="line47" d="M555.9 1053h0" class="st5"/>
  <path id="line49" d="M1031.5 425.1h0" class="st5"/>
  <path id="line51" d="M1031.5 86.1h0" class="st5"/>
  <path id="line53" d="M555.9 3.5h0" class="st5"/>
  <path id="line55" d="M80.3 86.1h0" class="st5"/>
  <path id="line57" d="M80.3 425.1h0" class="st5"/>
  <path id="path59" fill="none" stroke="#fff" stroke-miterlimit="10" stroke-width="4" d="M515.9 1099C305.6 974 40.3 792.1 40.3 471.1v-339c97-36.7 246.9-82.6 475.6-82.6 231.3 0 390 50 475.6 82.6v339c0 323.7-275.6 510.2-475.6 628z"/>
  <path id="path61" fill="none" stroke="#fff" stroke-miterlimit="10" stroke-width="2" d="M541.7 1136.3C331.4 1011.3 66 829.4 66 508.4v-339c97-36.7 246.9-82.6 475.6-82.6 231.3 0 390 50 475.6 82.6v339c0 323.7-275.6 510.2-475.6 628z"/>
  <path id="path63" fill="none" stroke="#fff" stroke-miterlimit="10" d="M486.9 1136.8C276.6 1011.8 11.3 830 11.3 509V170c97-36.7 246.9-82.6 475.6-82.6 231.3 0 390 50 475.6 82.6v339c-.1 323.7-275.6 510.3-475.6 628z"/>
  <circle id="circle65" cx="1.8" cy="423.8" r="1.3" fill="#fff"/>
</svg>
