<svg viewBox="0 0 448 512">
  <path fill="currentColor" d="M128 0c18 0 32 14 32 32v32h128V32a32 32 0 1 1 64 0v32h48c27 0 48 22 48 48v48H0v-48c0-26 22-48 48-48h48V32c0-18 14-32 32-32zM0 192h448v272c0 27-21 48-48 48H48c-26 0-48-21-48-48V192zm64 80v32c0 9 7 16 16 16h32c9 0 16-7 16-16v-32c0-9-7-16-16-16H80c-9 0-16 7-16 16zm128 0v32c0 9 7 16 16 16h32c9 0 16-7 16-16v-32c0-9-7-16-16-16h-32c-9 0-16 7-16 16zm144-16c-9 0-16 7-16 16v32c0 9 7 16 16 16h32c9 0 16-7 16-16v-32c0-9-7-16-16-16h-32zM64 400v32c0 9 7 16 16 16h32c9 0 16-7 16-16v-32c0-9-7-16-16-16H80c-9 0-16 7-16 16zm144-16c-9 0-16 7-16 16v32c0 9 7 16 16 16h32c9 0 16-7 16-16v-32c0-9-7-16-16-16h-32zm112 16v32c0 9 7 16 16 16h32c9 0 16-7 16-16v-32c0-9-7-16-16-16h-32c-9 0-16 7-16 16z"/>
</svg>
