<svg viewBox="0 0 640 512">
  <path fill="currentColor" d="M192 64c0-35 29-64 64-64h320c35 0 64 29 64 64v70c-13-7-28-8-42-3l-99 33-37-60c-3-5-9-8-14-8s-11 3-14 8l-46 74-15-20a16 16 0 0 0-26 0l-56 72c-3 5-4 12-1 17s8 9 14 9h64v64H256c-35 0-64-29-64-64V64zm128 341a78 78 0 0 0-30 43H64c-35 0-64-29-64-64V160c0-35 29-64 64-64h96v264c0 18 14 32 32 32h150c-8 3-16 8-22 13zm0-309a32 32 0 1 0-64 0 32 32 0 1 0 64 0zM56 168v16c0 9 7 16 16 16h16c9 0 16-7 16-16v-16c0-9-7-16-16-16H72c-9 0-16 7-16 16zm16 80c-9 0-16 7-16 16v16c0 9 7 16 16 16h16c9 0 16-7 16-16v-16c0-9-7-16-16-16H72zM56 360v16c0 9 7 16 16 16h16c9 0 16-7 16-16v-16c0-9-7-16-16-16H72c-9 0-16 7-16 16zm574-195c6 4 10 11 10 19v216c0 27-29 48-64 48s-64-21-64-48 29-48 64-48l16 2v-89l-144 48v151c0 27-29 48-64 48s-64-21-64-48 29-48 64-48l16 2V248c0-10 7-19 16-23l192-64c8-2 16-1 22 3z"/>
</svg>
