<svg viewBox="0 0 640 512">
  <path fill="currentColor" d="m336 4 288 160a32 32 0 0 1-32 56L320 69 48 220a32 32 0 0 1-32-56L305 4c9-5 21-5 31 0zm-16 156a40 40 0 1 1 0 80 40 40 0 1 1 0-80zm-176 96a40 40 0 1 1 0 80 40 40 0 1 1 0-80zm312 40a40 40 0 1 1 80 0 40 40 0 1 1-80 0zM227 491l-27-49v38c0 18-14 32-32 32h-48c-18 0-32-14-32-32v-38l-27 49a24 24 0 0 1-42-22l38-71c15-28 45-46 77-46h20c16 0 32 5 45 13l34-63c15-28 45-46 77-46h20c32 0 62 18 77 46l34 63c13-8 29-13 45-13h20c32 0 62 18 77 46l38 71a24 24 0 1 1-42 22l-27-49v38c0 18-14 32-32 32h-48c-18 0-32-14-32-32v-38l-27 49a24 24 0 0 1-42-22l36-68-4-6-27-49v54c0 18-14 32-32 32h-48c-18 0-32-14-32-32v-54l-27 49-4 6 36 68a24 24 0 1 1-42 22z"/>
</svg>
