<svg xmlns="http://www.w3.org/2000/svg" viewBox="0 0 432 112">
  <path fill="currentColor" d="M 111.859 55.565 C 111.859 86.465 86.759 111.565 55.859 111.565 C 24.959 111.565 -0.141 86.465 -0.141 55.565 C -0.141 24.665 24.959 -0.435 55.859 -0.435 C 86.759 -0.435 111.859 24.665 111.859 55.565 Z M 271.859 55.565 C 271.859 86.465 246.759 111.565 215.859 111.565 C 184.959 111.565 159.859 86.465 159.859 55.565 C 159.859 24.665 184.959 -0.435 215.859 -0.435 C 246.759 -0.435 271.859 24.665 271.859 55.565 Z M 375.859 111.565 C 344.959 111.565 319.859 86.465 319.859 55.565 C 319.859 24.665 344.959 -0.435 375.859 -0.435 C 406.759 -0.435 431.859 24.665 431.859 55.565 C 431.859 86.465 406.759 111.565 375.859 111.565 Z" />
</svg>
