<svg viewBox="0 0 512 512">
  <path fill="currentColor" d="M352 256c0 22-1 44-3 64H163a598 598 0 0 1 0-128h186c2 20 3 42 3 64zm29-64h123a255 255 0 0 1 0 128H381a632 632 0 0 0 0-128zm112-32H377C367 96 347 43 321 8c79 21 142 78 172 152zm-149 0H168c6-36 15-69 27-95 10-23 22-40 33-51s21-14 28-14 17 3 28 14 23 28 33 51c12 26 21 59 27 95zm-209 0H19C49 86 112 29 191 8c-26 35-46 88-56 152zM8 192h123a632 632 0 0 0 0 128H8a255 255 0 0 1 0-128zm187 255c-12-26-21-59-27-95h176c-6 36-15 69-27 95-10 23-22 40-33 51s-21 14-28 14-17-3-28-14-23-28-33-51zm-60-95c10 64 30 117 56 152-79-21-142-78-172-152h116zm358 0c-30 74-93 131-171 152 25-35 45-88 55-152h116z"/>
</svg>
