<svg viewBox="0 0 640 512">
  <path fill="currentColor" d="M338 5c-11-7-25-7-36 0L166 96H48c-26 0-48 22-48 48v320c0 27 22 48 48 48h544c27 0 48-21 48-48V144c0-26-21-48-48-48H474L338 5zm-82 411a64 64 0 0 1 128 0v96H256v-96zM96 192h32c9 0 16 7 16 16v64c0 9-7 16-16 16H96c-9 0-16-7-16-16v-64c0-9 7-16 16-16zm400 16c0-9 7-16 16-16h32c9 0 16 7 16 16v64c0 9-7 16-16 16h-32c-9 0-16-7-16-16v-64zM96 320h32c9 0 16 7 16 16v64c0 9-7 16-16 16H96c-9 0-16-7-16-16v-64c0-9 7-16 16-16zm400 16c0-9 7-16 16-16h32c9 0 16 7 16 16v64c0 9-7 16-16 16h-32c-9 0-16-7-16-16v-64zM232 176a88 88 0 1 1 176 0 88 88 0 1 1-176 0zm88-48c-9 0-16 7-16 16v32c0 9 7 16 16 16h32c9 0 16-7 16-16s-7-16-16-16h-16v-16c0-9-7-16-16-16z"/>
</svg>
