<svg viewBox="0 0 640 512">
  <path fill="currentColor" d="M384 32h128a32 32 0 1 1 0 64H398c-5 26-23 47-46 57v295h160a32 32 0 1 1 0 64H128a32 32 0 1 1 0-64h160V153a80 80 0 0 1-46-57H128a32 32 0 1 1 0-64h128a80 80 0 0 1 128 0zm56 288h144l-72-124-72 124zm72 96c-63 0-115-34-126-79-3-11 1-22 7-32l95-163a28 28 0 0 1 48 0l95 163c6 10 10 21 7 32-11 45-63 79-126 79zM127 196 54 320h145l-72-124zM1 337c-3-11 1-22 7-32l95-163a28 28 0 0 1 48 0l95 163c6 10 9 21 7 32-11 45-63 79-126 79S12 382 1 337z"/>
</svg>
