<svg viewBox="0 0 640 512">
  <path fill="currentColor" d="m69 4 48 32c11 7 14 22 7 33s-22 14-33 7L43 44c-11-7-14-22-7-33S58-3 69 4zm528 40-48 32c-11 7-26 4-33-7s-4-26 7-33l48-32c11-7 26-4 33 7s4 26-7 33zM24 160h64a24 24 0 1 1 0 48H24a24 24 0 1 1 0-48zm528 0h64a24 24 0 1 1 0 48h-64a24 24 0 1 1 0-48zM117 332l-48 32c-11 7-26 4-33-7s-4-26 7-33l48-32c11-7 26-4 33 7s4 26-7 33zm432-40 48 32c11 8 14 22 7 33s-22 14-33 7l-48-32c-11-7-14-22-7-33s22-14 33-7zm-100 6c-20 27-40 54-49 86H240c-10-32-29-59-49-86l-16-22a176 176 0 1 1 289 0c-4 8-10 15-15 22zm-49 134a80 80 0 1 1-160 0v-16h160v16zM320 96c9 0 16-7 16-16s-7-16-16-16c-62 0-112 50-112 112 0 9 7 16 16 16s16-7 16-16c0-44 36-80 80-80z"/>
</svg>
