<svg viewBox="0 0 640 448">
  <path fill="currentColor" d="M320 0c-8.1 0-16.1 1.4-23.7 4.1L15.8 105.4a24 24 0 0 0 0 45.2l57.9 20.9A164.6 164.6 0 0 0 48 259.9V288c0 28.4-10.8 57.7-22.3 80.8-6.5 13-13.9 25.8-22.5 37.6a16.1 16.1 0 0 0 8.9 25.2l64 16a16 16 0 0 0 19.5-12.4c8.6-42.8 4.3-81.2-2.1-108.7a221.1 221.1 0 0 0-13.5-42v-24.6c0-30.2 10.2-58.7 27.9-81.5 12.9-15.5 29.6-28 49.2-35.7l157-61.7a16 16 0 0 1 11.7 29.7l-157 61.7a91.8 91.8 0 0 0-32.2 21.6l159.6 57.6a70.7 70.7 0 0 0 47.4 0l280.6-101a24 24 0 0 0 0-45.2L343.7 4.1A70.7 70.7 0 0 0 320 0ZM128 376c0 35.3 86 72 192 72s192-36.7 192-72l-15.3-145.4L354.5 282a101.8 101.8 0 0 1-69 0l-142.2-51.4Z"/>
</svg>
