<svg viewBox="0 0 512 432.1">
  <path fill="currentColor" d="M152 6c10 9 11 24 2 34l-72 80c-4 5-11 8-17 8-7 0-13-2-18-7L7 81c-9-9-9-25 0-34s25-9 34 0l22 22 55-61c9-10 24-11 34-2zm0 160c10 9 11 24 2 34l-72 80c-4 5-11 8-17 8-7 0-13-2-18-7L7 241c-9-9-9-25 0-34s25-9 34 0l22 22 55-61c9-10 24-11 34-2zm72-102c0-18 14-32 32-32h224a32 32 0 1 1 0 64H256c-18 0-32-14-32-32zm0 160c0-18 14-32 32-32h224a32 32 0 1 1 0 64H256c-18 0-32-14-32-32zm-64 160c0-18 14-32 32-32h288a32 32 0 1 1 0 64H192c-18 0-32-14-32-32zM48 336a48 48 0 1 1 0 96 48 48 0 1 1 0-96z"/>
</svg>
