<svg viewBox="0 0 640 512">
    <path fill="currentColor" d="M256 0h320c35 0 64 29 64 64v224c0 35-29 64-64 64H256c-35 0-64-29-64-64V64c0-35 29-64 64-64zm220 107a24 24 0 0 0-40 0l-56 84-17-22a24 24 0 0 0-37 0l-65 80a24 24 0 0 0 19 39h272a24 24 0 0 0 20-37l-96-144zM336 96a32 32 0 1 0-64 0 32 32 0 1 0 64 0zM64 128h96v288c0 18 14 32 32 32h128c18 0 32-14 32-32v-32h160v64c0 35-29 64-64 64H64c-35 0-64-29-64-64V192c0-35 29-64 64-64zm8 64c-9 0-16 7-16 16v16c0 9 7 16 16 16h16c9 0 16-7 16-16v-16c0-9-7-16-16-16H72zm0 104c-9 0-16 7-16 16v16c0 9 7 16 16 16h16c9 0 16-7 16-16v-16c0-9-7-16-16-16H72zm0 104c-9 0-16 7-16 16v16c0 9 7 16 16 16h16c9 0 16-7 16-16v-16c0-9-7-16-16-16H72zm336 16v16c0 9 7 16 16 16h16c9 0 16-7 16-16v-16c0-9-7-16-16-16h-16c-9 0-16 7-16 16z"/>
</svg>
