<svg viewBox="0 0 512 512">
  <path fill="currentColor" d="m58 193 9 16c8 15 22 26 38 30l58 17c17 5 29 20 29 38v40c0 11 6 21 16 26s16 15 16 26v39c0 15 15 27 30 22 16-4 29-17 33-33l2-12c5-16 16-31 31-40l8-4c15-9 24-25 24-42v-8c0-13-5-25-14-34l-4-4c-9-9-21-14-34-14h-43c-11 0-22-3-32-8l-34-20c-5-3-8-7-10-11-3-10 2-20 11-25l6-3c6-3 14-4 21-1l23 7a19 19 0 0 0 21-30l-14-16a32 32 0 0 1 1-42l15-18c9-10 10-25 4-37l-3-4h-10c-93 0-172 61-198 145zm406 63c0-37-10-71-26-101l-26 10c-16 6-24 24-18 40l16 50c4 11 12 19 23 21l29 7 2-27zM0 256a256 256 0 1 1 512 0 256 256 0 1 1-512 0z"/>
</svg>
