<svg viewBox="0 0 512 512">
  <path fill="currentColor" d="M211 7.3a24 24 0 0 0-40.5 10.8l-15.8 62.5-62-17.5a24 24 0 0 0-29.6 29.6l17.5 62-62.5 15.9c-8.4 2.1-15 8.7-17.3 17.1S1 205 7.3 211l46.2 45-46.2 45a24 24 0 0 0 10.8 40.5l62.5 15.8-17.5 62c-2.4 8.4 0 17.4 6.1 23.5s15.1 8.5 23.5 6.1l62-17.5 15.8 62.5a24.1 24.1 0 0 0 40.5 10.9l45-46.2 45 46.2c6.1 6.2 15 8.7 23.4 6.4s14.9-8.9 17.1-17.3l15.8-62.5 62 17.5c8.4 2.4 17.4 0 23.5-6.1s8.5-15.1 6.1-23.5l-17.5-62 62.5-15.8a24.1 24.1 0 0 0 10.9-40.5l-46.2-45 46.2-45c6.2-6.1 8.7-15 6.4-23.4s-8.9-14.9-17.3-17.1l-62.5-15.8 17.5-62a24 24 0 0 0-29.6-29.6l-62 17.5-15.9-62.5c-2.1-8.4-8.7-15-17.1-17.3S307 1 301 7.3l-45 46.2-45-46.2z"/>
</svg>
