<svg viewBox="0 0 512 448">
  <path fill="currentColor" d="M96 64c0-35 29-64 64-64h288c35 0 64 29 64 64v320c0 35-29 64-64 64H80c-44 0-80-36-80-80V96a32 32 0 1 1 64 0v272c0 9 7 16 16 16s16-7 16-16zm64 24v80c0 13 11 24 24 24h112c13 0 24-11 24-24V88c0-13-11-24-24-24H184c-13 0-24 11-24 24zm208-8c0 9 7 16 16 16h48c9 0 16-7 16-16s-7-16-16-16h-48c-9 0-16 7-16 16zm0 96c0 9 7 16 16 16h48c9 0 16-7 16-16s-7-16-16-16h-48c-9 0-16 7-16 16zm-208 96c0 9 7 16 16 16h256c9 0 16-7 16-16s-7-16-16-16H176c-9 0-16 7-16 16zm0 96c0 9 7 16 16 16h256c9 0 16-7 16-16s-7-16-16-16H176c-9 0-16 7-16 16z"/>
</svg>
