<svg viewBox="0 0 640 512">
  <path fill="currentColor" d="M48 0C22 0 0 22 0 48v416c0 27 22 48 48 48h96v-80a48 48 0 0 1 96 0v80h90c-6-10-10-22-10-35 0-47 26-88 64-109V48c0-26-21-48-48-48H48zm16 240c0-9 7-16 16-16h32c9 0 16 7 16 16v32c0 9-7 16-16 16H80c-9 0-16-7-16-16v-32zm112-16h32c9 0 16 7 16 16v32c0 9-7 16-16 16h-32c-9 0-16-7-16-16v-32c0-9 7-16 16-16zm80 16c0-9 7-16 16-16h32c9 0 16 7 16 16v32c0 9-7 16-16 16h-32c-9 0-16-7-16-16v-32zM80 96h32c9 0 16 7 16 16v32c0 9-7 16-16 16H80c-9 0-16-7-16-16v-32c0-9 7-16 16-16zm80 16c0-9 7-16 16-16h32c9 0 16 7 16 16v32c0 9-7 16-16 16h-32c-9 0-16-7-16-16v-32zm112-16h32c9 0 16 7 16 16v32c0 9-7 16-16 16h-32c-9 0-16-7-16-16v-32c0-9 7-16 16-16zm304 176a80 80 0 1 0-160 0 80 80 0 1 0 160 0zM352 477c0 19 16 35 35 35h218c19 0 35-16 35-35 0-51-42-93-93-93H445c-51 0-93 42-93 93z"/>
</svg>
