<svg viewBox="0 0 496 512">
  <path fill="currentColor" d="m323.8 7.5 15.8 31.6a31.9 31.9 0 0 0 38.7 16l67.6-22.5a13.8 13.8 0 0 1 17.5 17.5l-22.5 67.6a32 32 0 0 0 16 38.7l31.6 15.8a13.7 13.7 0 0 1 1.1 23.8l-97.9 61.2c-6.8 4.3-3.8 14.8 4.2 14.8h38.3a13.8 13.8 0 0 1 13.1 18.2l-8.5 25.5a32.2 32.2 0 0 0 9.5 34.4l34.3 29.4a15.4 15.4 0 0 1-2.4 25.1l-28.9 16.5a32 32 0 0 0-15.7 33l4.2 25.1.2 1.9c0 7.6-7.2 13.2-14.6 11.2l-155-40.4a16 16 0 0 0-19.2 10.4l-8.5 25.4a12.3 12.3 0 0 1-22.3 2.1l-53-95.3L57 505a24 24 0 0 1-33.9-33.9l200.2-200.3a16.1 16.1 0 0 0-2.5-19.4 16 16 0 0 0-22.6 0l-84 84L6.3 275.5a12.2 12.2 0 0 1 2.1-22.3l25.4-8.5a16 16 0 0 0 10.4-19.2L3.8 70.6a11.6 11.6 0 0 1 13.1-14.4L42 60.3a32 32 0 0 0 33-15.7l16.5-28.9a15.4 15.4 0 0 1 25.1-2.3L146 47.7a32 32 0 0 0 34.4 9.5l25.5-8.5a13.8 13.8 0 0 1 18.2 13.1v38.3c0 8 10.5 11.1 14.8 4.2L300 6.4a13.7 13.7 0 0 1 23.8 1.1z"/>
</svg>
