<svg viewBox="0 0 361.3 361">
  <path d="M-1.4 248.2h24.9l90.1-90.1-.1-23.3-22.1 21.6V135L225.7.8l.9-.9h-23.9l-90.1 90.4-21.7 21.8h-21l88.8-88.8V0l-23.2-.1-.3.3h-.1v.1L90.5 45.1H69.7l44.9-45L90.9 0 68.5 22.4H47.6L69.6 0H45.4L-.5 46.3h22.7L.5 67.8v24.6l45.9-46.2h20.1L.6 112.6l-.1.1L.4 160l44.9-45.7.1 21.1L.6 180l-.1.1v23h23l21.9-21.7v21.2l-46.8 45.6zm3-67.8h21L1.5 201.5v-21l.1-.1zM24.1 158H45l-20.9 20.9V158zm0-134.6h21.1L24.1 44.1V23.4zm.4 21.7 21.1-20.7v20.7H24.5zm22.1-.9V23.6h20.6L46.6 44.2zm21.2-19.7v20.6H47.1l20.7-20.6zM24.1 46.1h21l-21 21.2V46.1zm56.5 0h9L68.8 66.9V46.1h11.8zM136.1.9 157 1l-20.8 20.8-.1-20.9zM69 68.3h20.6L69 89V68.3zm21.4.7v20.6H69.8L90.4 69zm1-2.5V46.1h20.5L91.4 66.5zm21.5-19.9v20.8H92.1l20.8-20.8zM90.4 67.3H69.8l20.6-20.5v20.5zM68 69.1v20.6H47.4L68 69.1zm-.7 21.6-20.7 20.7V90.7h20.7zm-21.7.7v20.8H24.8l20.8-20.8zM24 111.7v-21h21l-21 21zm44-20.3v20.8H47.2L68 91.4zm0 67.5v20.6H47.4L68 158.9zm-21.4 19.9V158h20.8l-20.8 20.8zM69 158h20.9L69 178.9V158zm21.4 1v20.4H70L90.4 159zm-20.5-2 20.2-20.2.1 20.2H69.9zm-.9-.6v-20.8h20.8L69 156.4zm.9-21.8 20.5-20.5v20.5H69.9zm-.9-.6v-20.7l20.6.1L69 134zm-1-20v20.6H47.5L68 114zm0 43H47.5L68 136.5V157zm-22.4 22.4H25l20.6-20.6v20.6zm.8 1.1h21.1l-21.1 21.1v-21.1zm21.6.9V202H47.3L68 181.4zm1-1h20.8L69 201.2v-20.8zM91.4 158h20.9l-20.9 20.9V158zM69 90.7h21l-21 21v-21zm22.4-22.4h20.9L91.4 89.2V68.3zm22.5-22.2h20.7l-20.7 20.7V46.1zm.5-1 20.8-20.8v20.8h-20.8zm21.8-21.7h21l-21 21v-21zm.8-1 20.7-20.7v20.7H137zm-23.1 21.7V23.4h20.7l-20.7 20.7zm-1 1H92l20.9-21v21zM46.6 89V68.4h20.6L46.6 89zm-1 .6H24.8l20.8-20.9v20.9zm-22.7 22.6H2.4l20.5-20.6v20.6zm-.5 1-21 21 .1-21h20.9zm.5.9v20.6l-20.6-.1 20.6-20.5zm1.1-.9h21.1L24 134.6v-21.4zm43.3 0-20.9 21.1-.1-21.1h21zm-20.7 22.4h20.8l-20.8 20.8v-20.8zm-23.5 43.8H2.6L23.1 159v20.4zm21.9 1-20.9 20.7v-20.7H45zm1.6 22.6h20.6l-20.6 20.6V203zm-22.5 22.2h21l-21 21v-21zm-1 .6v21.4h-22l22-21.4zm89.5-68.8H92.3l20.2-19.8.1 19.8zm-21.2-43.8h20.4l-20.4 20.3v-20.3zm111.2-90.8h-20.9l20.9-21v21zm-.9 1.1L181.1 44V23.5h20.6zM180.1 45l-20.9.1 20.9-21V45zm-1.1 1.1-20.3 20.2V46.1H179zm-21.3 21.2H137l20.7-20.8v20.8zm-1 1-20.4 20.4V68.3h20.4zm-21.4 21.5-20.5-.1 20.5-20.6v20.7zm-21.6.9 20.5.1-20.5 20.5V90.7zm90-69.2V1h20.5l-20.5 20.5zm-91.1 70.3.1 20.4H92.3l20.3-20.4zm22.6-69.4h-20.6l20.6-20.7v20.7zM68.8 44.5v-21l.1-.1h20.9l-21 21.1zm22.6-22.6V1h20.8L91.4 21.9zM90.4 2v20.4H70L90.4 2zM46.6 22V1h20.6L46.6 22zm-1-20.8v21.2h-21l21-21.2zM1.9 45.3l21.2-21.4V45l-.2.2h-21zm21.2 1.5v20.6H2.4l20.7-20.6zM1.5 68.4H23L1.5 90V68.4zm66.3-22v20.9H47l20.8-20.9zM1.4 135.7l21.4.1-21.4 21.8v-21.9zm44.2.9V157H25.2l20.4-20.4zM2.3 202.1l20.8-20.7v20.7H2.3zm43.3 1.7v20.4H24.7l20.9-20.4zM360.6 178.8 247.8 292.1l-.1.1-.2 24.1 89.6-89.8v23.1l23.4-24.2.1-.1v-46.5zm-22.3 24.3h20.6l-20.6 20.5v-20.5zm-1 21.3h-20.7l20.7-20.8v20.8zm-22.5 22.8h-20.9l20.9-21v21zm-21.4.7zm-23.5 43.8h-20.2l20.2-20.3v20.3zm1.1-21.1h20.8L271 291.4v-20.8zm.6-1 20.8-20.9.1 20.9h-20.9zm21.8-21.3h20.7L293.5 269l-.1-20.7zm22.5-22.9h21l-21.1 21.1.1-21.1zm43.7-21.7v20.6h-20.8l20.8-20.6zm0-1.6h-20.8l20.7-20.8.1 20.8zm-110.9 90.6h21.1L248.6 314l.1-21.3zm89.5-67.3h21l-21 21.8v-21.8z" fill="currentColor"/>
  <path d="m360.5 158.2.1-.1v-46.8L248.4 224l-.2-20.9 45.9-45.9h-24.2l-22.1 22.4-21-.2 21.6-21.4-.2-45.2 44.1-43.4.2 22.6 67.9-68.2.1-.1V-1.1l-67.1 67.9h-.2l.1-20.8 46-45.9-24.5-.1-66.9 67.4H227L294.2 0h-46.3l-89.8 89.9-.1.1.1 22.6-23.4 23.2h22.1L.9 292.1l-.1.1.1 24.1 89.5-89.8v21.2l-44.8 44.7v24.5l68.3-68.7 22.4.1 44.8-44.9.1-.2-.1-22.3v-1.6h-23.3v23.4l-43.4 43.9-.4.4v-22.6H92.5L224.9 92.1l.2 66.1-22.2 21.8-.1.1-.2 21.9-.9.9.1.1-88.8 89-.1.1-.1 25 90.7-91.6 20.5.1-89 89.3-.1.1.2 22.1-23.8 23.2h24.5l90-89.8 22.1.1 112.6-112.4zm-201.7 45h20.9l-20.9 21v-21zm-1 21.4h-20.2l20.2-20.5v20.5zm-21.2 1h20.9l-21.2 21.2v-20.9l.3-.3zm43.6-23.4h-20.5l20.4-20.3.1 20.3zm-.1-21.9v.2l-21.3 21.3v-21.4l21.3-.1zm-44.9 46.6v20.4l-20.1-.1 20.1-20.3zM69 291.6v-21.2l.1-.1h21.2v.1l-21.1 21.2H69zm-1 0H47.8L68 271.4v20.2zm-22.3-22.3H25l20.6-20.7v20.7zm-22.6 22.4H2.7L23 271.3l.1 20.4zm1-21.4h21.3l-21.3 21.3v-21.3zm21.9-.7zm.7-21.6h20.8l-20.8 21v-21zm21.4-1H47.3l20.8-20.9V247zm22.2-22.8H70l20.3-20.4v20.4zm1 24h21.1l-21.1 21.2v-21.2zm.6-1 21.1-21v21H91.9zm43.3-67.7h-20.7l20.7-20.7v20.7zM92 202.2l21-21v21H92zm21.9-21.7H135l-21.1 21v-21zm22-.9zm.3-21.5h21.2l-21.2 21.2v-21.2zm200.6-112-20.9 21v-21h20.9zm1.5-22.6h21l-21 21.1V23.5zm-1 21.6h-21.1l21.1-21.3v21.3zm-22.4 22.2h-20.6l20.6-20.9v20.9zm-112.2 45h-20.9l20.9-20.9v20.9zM180 134.7h-20.7L180 114v20.7zm46.8-89.6 20.5-20.6v20.6h-20.5zm20.6 44.6H227l20.4-20.5v20.5zm-21.4-.4V68.4l20.7.1L226 89.3zm-45 1.6.1-.1H202l-21 20.8V90.9zm1.2-1.2 20.4-20.5v20.5h-20.4zm21.5-21.4h20.7L203.7 89V68.3zm21.3-1h-20.5L225 46.8v20.5zm1-22.9V23.5h20.9L226 44.4zm-22.3 22.4V46.1h20.7l-20.7 20.7zM181 89.4V68.3h21.1L181 89.4zm-1 22.9h-20.4L180 91.9v20.4zm45-43.2v20.6h-20.6L225 69.1zm.9 21.8v-.2h20.9L226 111.6l-.1-20.7zm.1 22.3h20.4L226 133.6v-20.4zm0 22.6h20.9l-20.8 20.8-.1-20.8zm21.3 1 .1 20.3H227l20.3-20.3zm0-2.1h-20.9l20.9-20.9v20.9zm.2-22.5h-20.7l20.5-20.5.2 20.5zm.9-21.5h20.9l-20.8 20.5-.1-20.5zm.9-1L269.9 69v20.7h-20.6zM271 68.3h21L271 89V68.3zm.7-1 20.6-20.6-.1 20.6h-20.5zm42.7-43.8-21.2 21.1V23.5h21.2zm-22.1 21.6h-20.8l20.8-20.9v20.9zm-.8 1L271 66.6V46.1h20.5zm-43.1 43.1V68.4h20.9l-20.9 20.8zM226 46.1h20.8L226 66.9V46.1zm22.3-22.6h21l-21 21.1V23.5zm1-1 20.6-20.6v20.6h-20.6zm-1-.5V1h21l-21 21zm-1 .5h-20.5L247.3 2v20.5zM225 45.1h-20.8L225 24.3v20.8zm-22.3 22.2H182l20.6-20.6v20.6zM180 89.7h-20.3L180 69.3v20.4zm-.2 1L159 111.5l-.1-20.8h20.9zm-.4 22.6L159 133.7l-.1-20.4h20.5zm-20.6 22.5h21l-21 21v-21zm22.2-22.5h21.2L181 134.5v-21.2zm22.7-22.6h21.2l-21.2 21.2V90.7zm21.4 90.2v21.3h-21.3l21.3-21.3zm-20.9 88.5 20.9-20.9v20.9h-20.9zm-22.3 22.2 20.7-20.7v20.7h-20.7zm-1.8 22.8h-21l21-21v21zm-.6-21.7-20.7 20.7v-20.7h20.7zm22.3-22.3L181.1 291v-20.6h20.7zm135.4-90.9h-20.6l20.6-20.6v20.6zm-22.4 22.4h-20.6l20.6-20.6v20.6zm-43.1 22.6 20.6-20.6v20.6h-20.6zm44.1-45.6v-20.6h20.6l-20.6 20.6zm-22.5 22.5v-20.9h20.9l-20.9 20.9zM271 223.7V203h20.8L271 223.7zm-23.6 2.7.1-.1V247h-20.9l20.8-20.8v.2zm1.1-.9h20.7l-20.7 20.7v-20.7zm21.5.7V247h-20.8l20.8-20.8zm1-.7h20.8L271 246.2v-20.7zm22.3-22.5h20.9l-20.9 20.9V203zm22.5-22.5h20.9l-20.9 20.9v-20.9zm22.4-22.2H359L338.2 179v-20.7zm.7-1.1 20.7-20.7v20.7h-20.7zm-.7-.7v-20.7H359l-20.8 20.7zm-1 .7h-21l21-21.1v21.1zm-22.4 22.3h-20.7l20.7-20.8v20.8zm-22.5 22.4h-20.6l20.6-20.7v20.7zM270 224.5h-20.7l20.7-20.8v20.8zm-66.5-21.3h20.6l-20.4 20.4-.2-20.4zm22.6 0h20.2l-20.2 20.2v-20.2zm-1 21.3h-20.8l20.8-20.8v20.8zm22.1-20.7.2 20.7h-20.8l20.6-20.7zm1.3-23.3h20.9l-20.9 20.9v-20.9zm-1.1 21.7h-20.9l20.9-20.9v20.9zm-44.7 22.3h-20.9l20.8-20.8.1 20.8zM180.1 247h-20.9l20.9-20.9V247zm-22.3 22.3h-20.7l20.7-20.8v20.8zm-22.6 22.3h-20.4l20.4-20.5v20.5zm1 .4v-21.7h21.6l-21.7 21.9.1-.2zm22.3-22.5h.1l-.1.1v-.1zm.3-21.5h21.1l-21.1 21.3V248zm22.4-22.5h21.1l-21.1 21.3v-21.3zm65.5 0L226.1 246v-20.5h20.6zm-43.1 43V248h20.5l-20.5 20.5zm-1 .9h-20.7l20.7-20.8v20.8zm-22.5 22.2h-20.5l20.5-20.5v20.5zm-22.3 22.8-2.1.1h-18.8l20.9-20.9v20.8zm-1.1 1.1L136 335.9l-.2-20.4h20.9zm-20.6 22.6h20.6L136 358.8l.1-20.7zm21.6-1h-21.4l21.5-21.3v21.1h.1l-.2.2zm1.1-21.7h20.6L158.8 336v-20.6zm22.3-22.7h21.1l-21.1 21.1v-21.1zm22.5-22.3h21l-21 20.9v-20.9zm22.5-22.4h20.6l-20.6 20.6V248zm43.1 0-20.7 20.6V248h20.7zm90.4-113.3h-20.9l20.9-21v21zM271 179v-20.8h20.8L271 179zm-1.1-20.4v20.9h-20.6l20.6-20.9zm-23.2 22-20.6 20.6v-20.7l20.6.1zm-20.6-1.9V158h20.8l-20.8 20.7zm67.2-110.4h21.4l-21.2 21.3-.2-21.3zm66.1-45.8h-20.9l20.9-21.2v21.2zm-43.5-.5V1l21 .1-21 20.9zm-1-20.6v21.1h-21l21-21.1zm-45 45.2v20.8h-20.6l20.6-20.8zm1.1-24.7V1h20.8L271 21.9zm-134 113 20.9-20.7.1 20.5v.1h-21zm20.8 1.2V157h-20.9l20.9-20.9zM1.7 292.7H23L1.8 313.9l-.1-21.2zm67.4-46.2v-21.2h21.1l-.2.2-20.9 21zm21.2 2.7v20.1H70.1l20.2-20.1zm-43.8 43.7.3-.3h21.5l-21.7 21.9v-21.6zm65.8-67.5-21 21v-21h21zm-21-1.2v-21h21l-21 21zm133.8-64.7v19.8h-20.2l20.2-19.8zm-21.4 21 .2-.2h20.3L203.6 201l.1-20.5zm-89.8 112.2h21.8l-21.9 22.1.1-22.1zM225.1 226v21h-21l21-21zM135 338.6l-.1 20.8h-21.2l21.3-20.8zm91.5-69 21-21v21h-21z" fill="currentColor"/>
</svg>
