<svg viewBox="0 0 719.5 718.4">
  <path fill="var(--hub-geometric-gradient, currentColor)" d="m223 717 47-46v-1h1l-1-43 177-177h-41L226 631l1-50 176-176 1-2 1-44 44-43V185L186 447h43v45-1l87-87v-46h46v47l-89 89h-45L93 631v-49l89-89v-42L4 629v-47l1-1 308-309h-43l46-46v-46L494 2h92L453 136h41L627 2h48l-91 91v42L717 0v50L583 185l-1-45-87 86v90l-43 42h42l44-44h48l-91 91v41l223-223v93h-1L494 539h-44L272 717Zm5-2h42v-42Zm44-1 41-41h-41Zm1-43h42l1-1v-42Zm45-3 40-40h-40Zm-46 0 41-40h-41Zm-44-42 44-44h-44ZM95 583v43l43-44H95Zm216 43h5v-42l-42 42Zm49 0v-42l-42 42ZM6 625l42-43H6Zm356-1 42-42h-42Zm-44 0 41-42h-41Zm-45-42 43-44h-43v43Zm-225-2v-40L8 580Zm356 0v-41l-41 41Zm-44 0v-40l-41 40Zm-89 0v-40l-41 40Zm-221 0 43-42H50Zm90 0 42-42h-42v42Zm-2 0v-40l-40 40Zm268 0 42-42h-42Zm-44-1 41-41h-41Zm131-42v-42l-41 42Zm-399 0Zm223 0Zm-133-1 42-42h-42Zm265 0v-41l-41 41Zm-45 0v-41l-41 41Zm-86 0 41-42h-41Zm-2 0v-41l-42 41Zm-223 0v-41l-41 41Zm89 0v-40l-40 40Zm-87-1 42-41H95Zm400 0 41-41h-41Zm-44 0 41-41h-41Zm-45 0 41-41h-41Zm-175-43h40v-40Zm-46 0h42v-41Zm-47 0v-41l-42 41Zm400 0v-41l-41 41Zm-45 0v-41l-41 41Zm-44 0v-42l-42 42Zm-89 0v-42l-41 42Zm-87 0 42-43h-41l-1 1Zm89-1 42-42h-42Zm-222 0 41-42h1-42Zm44 0 41-42h-41Zm356-1 41-41h-41Zm-45 0 42-41h-42Zm-44 0 41-41h-41Zm-135-43v-40l-41 40Zm266 0v-41l-41 41Zm-44 0v-41l-41 41Zm-45 0v-41l-41 41Zm-44 0v-41l-41 41Zm-44 0-1-41-41 41Zm-87 0 41-42h-41Zm-136 0v-41l-41 41Zm2 0 41-42h-41Zm400-1 42-41h-42Zm-44 0 41-41h-41Zm-133 0 40-41h-41Zm44-1 40-40h-40Zm-91-42v-40l-41 40Zm133 0v-41l-41 41Zm-44 0v-42l-42 42Zm-222 0v-42l-42 42Zm400 0v-41l-41 41Zm-45 0v-41l-41 41Zm-265-43v42l43-42Zm-88 42 41-42h-41Zm266 0 42-42h-42Zm134 0 41-42h-41Zm-45 0 42-42h-42Zm-133-1 41-41h-41Zm-44-41-1 41 41-41h-40Zm-135-2Zm266 0v-41l-41 41Zm133 0v-41l-40 41Zm-44 0v-41l-41 41Zm-356 0v-41l-41 41Zm178 0v-39l-40 39Zm-176 0 42-42h-42Zm400-1 41-41h-41Zm-133 0 41-41h-41Zm89 0 41-41h-41Zm-178 0 41-41h-41Zm265-43v-41l-41 41Zm-45 0v-42l-41 42Zm-178 0v-41l-40 41Zm-177 0v-42l-42 42Zm2-1 41-42h-41Zm133 0 41-42h-41Zm222-1 41-41h-41Zm-399-42h42v-41Zm219-1v-41l-41 41Zm-133 0v-41l-41 41Zm356 0v-41l-42 41Zm-354 0 42-42h-42Zm-44-2 40-40h-40Zm133 0 40-40h-40Zm-46-42v-41l-42 41Zm-45 0v-41l-41 41Zm133 0 1-1h-1v-40l-41 41h41Zm-86-1 42-42h-42Zm-45 0 41-42h-41Zm89-1 41-41h-41Zm-133 0 41-41h-41Zm177 0 42-41h-42Zm43-43v-41l-41 41Zm-45 0v-41l-40 41Zm-44 0v-41l-41 41Zm-44 0v-41l-41 41Zm-45 0v-40l-41 40Zm224 0 43-42h-43Zm-222 0 41-42h-41Zm89-1 41-41h-41Zm44 0 41-41h-41Zm45 0 42-41h-42Zm-133 0 40-41h-40Zm220-43V94l-41 42Zm-45 0V95l-41 41Zm-44 0V95l-41 41Zm-89 0V95l-41 41Zm-44 0V95l-41 41Zm224-1 41-41h-41Zm-178 0 41-41h-41Zm-44 0 41-41h-41Zm133-1 41-40h-41Zm131-42V49l-41 43Zm-89 0V50l-41 42Zm-89 0V51l-41 41Zm-44 0V50l-41 42Zm135-1 42-42h-42Zm89 0 42-42h-42Zm-178 0 42-42h-42Zm-44-1 41-41h-41Zm264-43V5l-41 42Zm-88 0V5l-42 42Zm-89 0V6l-41 41Zm-45 0V6l-41 41Zm136-1 42-42h-42Zm-134 0 42-42h-42Zm45 0 41-42h-41Zm-46 536v-1l224-224v92l-47 48v-46L493 629Zm2 1-1 42 43-43h-42Zm42-3v-40l-40 40Zm2 0 41-41h-41Zm43-43-1-42-41 42Zm2-2 41-41h-42Zm-1-41v-1Zm1-2h42v-41Zm88 0 42-43h-42Zm-44-1 42-42h-42Zm87-44v-41l-41 41Zm-45 0v-41l-41 41Zm2-2 41-40h-41Zm43-42v-41l-41 41ZM0 494l93-90v-42l-44 43H4v-46l89-88v-42L4 320v-95L135 94H95L4 185v-48l43-43H2L93 2h48L97 47h42l44-45h47l-89 90h41l89-89V2h46v47L141 225h42l43-43L405 2h47l-2 2-266 266v42l44-42v46L49 494Zm5-2h43v-42Zm45-2 42-41H50Zm43-43v-41l-41 41Zm2-1 41-41H95Zm-46-43v-41L8 403Zm48 0h41v-41ZM6 360v42l42-42H6Zm89 42 42-42H95Zm45-1 41-41h-41Zm-89 0 41-41H51Zm131-43v-41l-41 41Zm-44 0v-41l-41 41Zm-45 0v-41l-41 41Zm-44 0v-40L8 358Zm2-1 41-41H51Zm89 0 41-41h-41Zm44 0 41-42h-41Zm-89 0 41-41H95ZM6 315l42-44H6Zm176-2-1-40-40 40Zm-44 0v-40l-41 40Zm-45 0v-40l-40 40Zm133 0v-39l-40 39Zm-86-1 41-41h-41Zm-45 0 41-41H95Zm-47-43v-41L7 269Zm2 0 42-42H50Zm132 0v-41l-41 41Zm-44 0v-41l-41 41Zm-43-1 41-41H95Zm-89 0 41-41H6Zm134 0 40-41h-40Zm44-1 40-40h-40Zm42-42v-41l-40 41Zm-88 0v-41l-42 41Zm-45 0v-41l-41 41Zm-45 0v-41L8 225Zm2-1 42-42H50Zm90 0 41-42h-41Zm-45-1 41-41H95Zm133 0 41-41h-41ZM6 181l42-43H6Zm265-1v-41l-41 41Zm-89 0v-41l-41 41Zm-44 0v-41l-41 41Zm-45 0v-42l-41 42Zm91-1 41-41h-41Zm-89 0 41-41H95Zm45 0 40-41h-40Zm133-1 40-40h-40ZM49 136V95L7 136Zm266 0V95l-41 41Zm-88 0V95l-42 41Zm-45 0V95l-41 41Zm-45 0V94l-41 42Zm-86 0 41-42H51Zm88-1 41-41h-41Zm90 0 41-41h-41Zm-45-1 41-40h-41Zm133 0 41-40h-40ZM6 92h43V50Zm131 0V51L96 92Zm-44 0V51L51 92Zm267 0V50l-42 42Zm-89 0V50l-42 42Zm-44 0V50l-42 42Zm-88-1 42-42h-42Zm134-1 41-41h-41ZM95 90l41-41H95Zm134 0 41-41h-41ZM51 90l41-41H51Zm311-1 41-40h-41Zm1-42h41V5Zm-181 0V6l-41 41Zm-89 0V5L51 47Zm222 0V6l-41 41Zm-44 0V6l-41 41ZM95 46l41-42H95Zm89 0 41-42h-41Zm89-1 41-41h-41Zm134 0 40-41h-40Z" />
</svg>
