<svg viewBox="0 0 448 448">
  <path fill="currentColor" d="M224 171a53 53 0 1 0 53 53 53 53 0 0 0-53-53Zm125-41a54 54 0 0 0-31-31c-21-8-71-6-94-6s-73-2-94 6a54 54 0 0 0-31 31c-8 21-6 71-6 94s-2 73 6 94a54 54 0 0 0 31 31c21 8 71 6 94 6s73 2 94-6a54 54 0 0 0 31-31c8-21 6-71 6-94s2-73-6-94zM224 306a82 82 0 1 1 82-82 82 82 0 0 1-82 82zm85-148a19 19 0 1 1 20-19 19 19 0 0 1-20 19zM400 0H48A48 48 0 0 0 0 48v352a48 48 0 0 0 48 48h352a48 48 0 0 0 48-48V48a48 48 0 0 0-48-48Zm-17 290c-1 26-7 48-26 67a95 95 0 0 1-67 26H158c-26-1-48-7-67-26a95 95 0 0 1-26-67V158c1-26 7-48 26-67s42-25 67-26h132c26 2 48 7 67 26s25 41 26 67v132z"/>
</svg>
