<svg viewBox="0 0 259.5 81.7">
  <path fill="#fff" d="M37 81.7C20.6 71.9 0 57.8 0 32.8V6.4C7.5 3.6 19.2 0 37 0c18 0 30.3 3.9 37 6.4v26.4C74 58 52.6 72.5 37 81.7z"/>
  <path fill="#1e407c" d="M48.1 47.5c0-.6.5-1.4.5-2.2 0-.9-1.1-1.2-2-1.3-1.8-.3-2.5-.2-2.5-.6 0-.3.2-.6.6-1.1.5-.7 1.7-1 2.3-1.1.8-.1 1.8-.2 2.9-.2 1.2 0 2.3.2 2.8.3 1.1.2 1.3.7 1.3 1.2v.5c0 .5-.4.8-1.2 1-.2 0-.5.1-.6.1-.6.1-1.3.2-1.5 1-.5 1.6-1.5 2.8-2.2 2.7-.2 0-.4-.1-.4-.3zm1.7-25.1c-.1 0-.3-.1-.3-.4s.2-.6.6-1.1c.9-1.2 2.2-2.8 2.7-2.8.2 0 .4.2.7.7.2.3.3.8.3 1.3 0 1.7-.6 2.8-1.5 4.1-.5-.2-1.3-1.1-2.5-1.8zm-27.2 3.1c.4 0 .7-.3 1.4-1 1.4-1.6 2.8-1.8 2.8-2.4 0-.3-.2-.6-.4-.9-1.5-2.3-2.1-3.6-3-5.3-.3-.6-.7-1-1.1-1-.5 0-1.1.6-1.4 1.1-.4.7-.9 1.6-.9 2.3 0 1.1.3 3.2.7 4.5.5 1.5 1.2 2.7 1.9 2.7zm16.9 5.4c0-1-1.1-2.4-3-2.4-1.7 0-3 1.3-3.3 2.3.4.8.8 1.6 2.4 2.1.2.1.4.1.4.3 0 .3-.3.4-.8.4-1.8 0-2.9-.7-3.4-1.4-.5.1-1 .3-1.7.3-.6 0-.8-.4-.8-.9 0-.3.1-.7.3-1.1l.3-.6c.3-.6.7-1.8 2.4-2.8a13.12 13.12 0 001-.6c.9-.6 1.7-.7 2.8-.7h.8c1.4 0 2 .4 2.6.9 1.2 1 1.9 1.6 1.9 2.3 0 .8 0 1.5-.7 2.4-.6.8-1.4 1.3-2 1.3-.2 0-.2-.1-.2-.2s.1-.2.3-.3c.3-.3.5-.9.7-1.3zm8.1 26c-.3.1-.9.2-3.7.2-4.2 0-4.9-1-4.9-1.8 0-1.4 6-2.3 8.4-2.3 2.3 0 3.3.7 3.3 1.3s-1.1 2.1-3.1 2.6zM23.4 69.2c4.4 3.4 9 6.4 13.6 9.2 0-4.1-.1-6.5 2.7-9.5l3.3-3.5c.8-.8 1.4-1.4 1.8-1.4.3 0 .4.1.4.5s.2 1.7 1 3.3c1 2 2.6 2.3 3.1 2.4 11.9-9 21.9-20.7 21.9-37.4V8.4c-2.9-1-15-5.6-34.2-5.6S5.7 7.4 2.8 8.4v24.4c0 7.3 1.9 13.7 5.1 19.4.3-3.4 2.6-5 2.6-8.3 0-2.3-.7-3.8-.7-5.7 0-3.5 4.7-10.7 7.2-13.7.1-.1.2-.3.4-.3s.3.1.4.3c.3.4.4.6.6.6.3 0 .4-.2.4-.4 0-.6-.7-1.6-.7-5.6 0-2.8.6-3.4 2.4-5.1.3-.3 1.3-1.2 2.2-1.2 1 0 1.5.6 2.2 1.3a35.47 35.47 0 012.8 3.3c.1.1.1.2.3.2.5 0 .9-.1 3.1-.1 3.9 0 9.8.6 12.8 1.6 1.6.5 1.9.9 2.3.9.2 0 .2-.1.2-.2 0-.2-.4-.5-.4-.8 0-.2.1-.3.3-.4 2.3-1.2 4.2-2.1 6-2.1 1 0 1.5.9 2 1.8.3.7.7 1.6.7 2.6 0 2.4-.9 3.9-1.6 4.9.3.4.8.9 1.1 1.3.5.6 1.2 1.5 1.2 2.3 0 .4-.2 1-.3 1.4 0 .2-.2.6-.6.6-.3 0-.4-.4-.4-.7v-.2c0-.7-.2-1.6-.8-2.3-.7-.8-1.4-1.3-2.3-1.3H51c-1.4 0-2 .6-2.4 1s-.7 1-.7 1.7c0 .4.3.9.7 1.7.2.5.8 1.5 1.1 2.1.3.5.6.7 1 .7 1 0 1.8-.1 1.8-.4 0-.1 0-.1-.2-.1H52c-1.3 0-2-1.6-2.6-3.1.5-.5 1-1 2-1 1.3 0 2.1.9 2.1 2 0 .6-.2 1-.3 1.2-.1.1-.1.2-.1.2 0 .2.2.2.6.3.1 0 .4.1.5.1.4.1.8.4.9.9.1.3.4 1 .4 1.2a7.83 7.83 0 01.1 5.2c-.4 1.4-.6 2-.6 2.8.1.2.1.3.2.5.2.5.5 1.3.5 2.2v.7c0 1.5-.6 2.6-1.2 3.4-.5.7-1.2 1.6-1.6 2.1-.3.3-.6.5-1 .5-.2 0-.4-.1-.6-.1-.2-.1-.8-.2-1-.2-.9-.2-1.2-.8-1.4-1.5 0-.1-.2-.4-.2-.5-.2-.5-.3-.9-.6-.9-.2 0-.5.2-.7.5-.9 1.3-1.3 1.7-2.8 2.1-.5.1-1.6.4-2.2.5-.9.2-2.5.6-3.4.6h-.6c-1.2-.2-2.1-.3-3.6-2.1-2.1-2.5-1.9-2.9-2-6.3 0-.4-.1-.9-.5-.9s-.5.7-.6 1.7c-.2 1.2-.4 2.4-1 2.4-.4 0-.7-.1-1.3-.3-.8-.2-2.7-.9-3.7-1.2-1.4-.5-2.7-.8-3.2-2-.2-.6-.7-1.6-.9-2.2-.2-.4-.3-.6-.5-.6-.4 0-.4.4-.5.8 0 .4-.1 1.3-.2 1.8-.2 2.4-.7 3.4-1.7 4.7-.5.6-.9 1.2-1.4 1.9-1 1.4-1.7 2.8-1.6 5.5v1.6c-.1 3.7.9 5.7 7.7 11.1z"/>
  <path fill="#96bee6" d="M55.2 33.7c.1.3.4 1 .4 1.2a7.83 7.83 0 01.1 5.2c-.4 1.4-.6 2-.6 2.8l-2.3-4.1c-.2-.3-.3-.6-.3-.9 0-.4.2-.6.6-.9l.8-.5c1.1-.5 1.3-1.2 1.3-1.9.1-.3 0-.6 0-.9zm-9 5.7c.1.3.2.6.2.8 0 .5-.1.7-.4 1-.2.2-.4.3-.6.5-.3.2-.6.3-.7.6-.3.5-.6.8-.6 1.1 0 .1 0 .2.1.2-.4-.3-.6-.8-.6-1.2s.1-.6.1-.9-.1-.6-.1-.8L41.5 35c-.6-1.6-1.1-2.4-1.8-2.4-.4 0-.7.2-1.1.2.5 0 1.4-.5 2-1.3.7-.9.7-1.5.7-2.4 0-.4-.1-.7-.4-1 .9.9 1.4 2 2 3.2l3.3 8.1zM15.5 57.8v-1.6c0-2.7.6-4.1 1.6-5.5l1.4-1.9c1-1.3 1.5-2.3 1.7-4.7a8.97 8.97 0 01.2-1.8c0-.3.1-.8.5-.8.3 0 .4.2.5.6.2.6.7 1.6.9 2.2.5 1.2 1.8 1.6 3.2 2l3.7 1.2c.6.2.9.3 1.3.3.6 0 .9-1.2 1-2.4.1-1 .3-1.7.6-1.7.4 0 .5.5.5.9.1 3.4-.1 3.8 2 6.3 1.5 1.8 2.4 1.9 3.6 2.1-.5-.1-1-.7-1-1.8V50c0-.6.1-1.2.4-1.9l.5-1.3c.3-.6.1-.8.1-1.2 0-.5-.2-.9-.5-2l-.7-2.1c-.8-2.1-1.1-2.6-3.6-3l-5.1-.7c-2.9-.4-5.1-.5-6.3-2.5-1.4-2.3-1.3-5.1-2.6-5.1-.6 0-1 .7-1 1.7 0 1.1.4 2.9.4 5.9 0 2.7-.2 3.4-1.8 5.3l-1.3 1.7c-1.1 1.4-1.7 2.3-1.6 3.9.4 4.2 1.1 7.4 1.4 9.1zM44.7 68c.1-1.1.6-2.8.6-3.6 0-.4-.1-.5-.4-.5-.4 0-1 .6-1.8 1.4l-3.3 3.5c-2.8 2.9-2.7 5.3-2.7 9.5l8-5.1c-.4-1.7-.6-2.9-.4-5.2z"/>
  <path fill="currentColor" d="M246.9 33.5h12.6c-.1-6.5-3.2-10.2-8.6-10.2S242 27 242 32.7c0 2.2.7 9.2 9.8 9.2 3.7 0 5.7-.8 6.5-1.1v-3.4c-.9.4-2.7 1.1-5.4 1.1-3.6 0-5.9-2-6-5zM229 26.9h2.5V37c0 3 2.2 4.9 5.7 4.9 1.7 0 3.4-.4 3.8-.5v-3.1c-.8.2-1.5.2-2 .2-2.2 0-3-.9-3-3.4v-8.2h4.8v-3.2H236v-3.9h-4.5v3.9H229v3.2zm-13.5.2c.2-.1 1.6-.6 3-.6 2.7 0 3.8 1.1 3.8 3.6v1h-2.4c-6 0-9.1 1.9-9.1 5.6 0 3.1 2.3 5.1 5.9 5.1 3.7 0 5.4-2.2 5.9-2.9h.1l.1 2.5h5.5v-3.2h-1.9v-8c0-4.6-2.7-6.9-8.1-6.9-3.2 0-6.1 1.5-6.7 1.8v4.3h3.8v-2.3zm-18.2-.2h2.5V37c0 3 2.2 4.9 5.7 4.9 1.7 0 3.4-.4 3.8-.5v-3.1c-.5.1-1.3.2-2 .2-2.2 0-3-.9-3-3.4v-8.2h4.8v-3.2h-4.8v-3.9h-4.5v3.9h-2.5v3.2zm-15 10.7v-3.1H178v6.1c2.6.9 5.1 1.3 8.1 1.3 6 0 9.3-2.7 9.3-7.5 0-4.9-3.6-6.3-7-7.2l-2.4-.6c-2-.5-3-1.5-3-3.1 0-1.5 1.3-3.1 4.1-3.1 1.2 0 2.5.4 3 .6v2.9h4.2v-5.5c-2-.8-4.7-1.2-7.4-1.2-5.7 0-8.9 2.4-8.9 6.7 0 3.9 1.8 5.9 6.2 7.1l2.1.6c2.9.8 4.1 1.8 4.1 3.6 0 2-1.4 3.1-4 3.1-1.2 0-3.3-.5-4.1-.7zm-66.4-4.1h12.6c-.1-6.5-3.2-10.2-8.6-10.2S111 27 111 32.7c0 2.2.7 9.2 9.8 9.2 3.7 0 5.7-.8 6.5-1.1v-3.4c-.9.4-2.7 1.1-5.4 1.1-3.6 0-5.9-2-6-5zm27.3 8h8.5v-3.2h-2.1v-7.9c0-4.3-2.7-7-6.8-7-3.4 0-5.2 2-5.7 2.8h-.1l-.1-2.4h-6.3V27h2.4v11.4h-2v3.2h8.5v-3.2h-2.1v-7.1c0-2.6 1.4-4.1 3.8-4.1 2.5 0 3.9 1.5 3.9 4.1v7.1h-2v3.1zm-53 0h9.5v-3.2h-2.4v-6.2h3.9c5.5 0 8.7-2.7 8.7-7.3 0-4.5-3.3-7.3-8.7-7.3h-11v3.2h2.4v17.5h-2.4v3.3zm128-2.8c-2.1 0-2.8-1.3-2.8-2.4 0-1.8 1.6-2.6 5.4-2.6h1.5v.3c-.1 3.2-2.2 4.7-4.1 4.7zm28.6-8.1c.2-2.6 1.7-4.3 3.9-4.3 2.4 0 3.8 1.5 3.8 4.1v.2h-7.7zm-130.9 0c.2-2.7 1.6-4.3 3.9-4.3 2.4 0 3.8 1.5 3.8 4.1v.2h-7.7zM100.6 29h-3.3v-8.2h3.3c2.7 0 4.4 1.6 4.4 4.1s-1.7 4.1-4.4 4.1zm65.7 12.5h8.5v-3.2h-2.1v-7.9c0-4.3-2.7-7-6.8-7-3.4 0-5.2 2-5.7 2.8h-.1l-.1-2.4h-6.3V27h2.4v11.4h-2v3.2h8.5v-3.2h-2.1v-7.1c0-2.6 1.4-4.1 3.8-4.1 2.5 0 3.9 1.5 3.9 4.1v7.1h-2v3.1z"/>
</svg>
