<svg viewBox="0 0 448 448">
  <path fill="currentColor" d="M400 0H48A48 48 0 0 0 0 48v352a48 48 0 0 0 48 48h352a48 48 0 0 0 48-48V48a48 48 0 0 0-48-48Zm-48.9 158.8c.2 2.8.2 5.7.2 8.5 0 86.7-66 186.6-186.6 186.6-37.2 0-71.7-10.8-100.7-29.4a131.5 131.5 0 0 0 97.2-27.2 65.7 65.7 0 0 1-61.3-45.5 70.7 70.7 0 0 0 29.6-1.2A65.6 65.6 0 0 1 77 186.2v-.8a65.5 65.5 0 0 0 29.6 8.3 65.4 65.4 0 0 1-29.2-54.6c0-12.2 3.2-23.4 8.9-33.1a186.2 186.2 0 0 0 135.2 68.6 65.7 65.7 0 0 1 111.9-59.9c14.8-2.8 29-8.3 41.6-15.8a65.4 65.4 0 0 1-28.8 36.1c13.2-1.4 26-5.1 37.8-10.2a138 138 0 0 1-32.9 34z"/>
</svg>
