<?xml version="1.0" encoding="utf-8"?>
<!-- Generator: Adobe Illustrator 23.0.3, SVG Export Plug-In . SVG Version: 6.00 Build 0)  -->
<svg version="1.1" id="Layer_1" xmlns="http://www.w3.org/2000/svg" xmlns:xlink="http://www.w3.org/1999/xlink" x="0px" y="0px"
	 viewBox="0 0 229 72" style="enable-background:new 0 0 229 72;" xml:space="preserve">
<style type="text/css">
	.st0{fill:#FFFFFF;}
	.st1{fill:#1E407C;}
	.st2{fill:#96BEE6;}
</style>
<title>psu-mark</title>
<g id="_Group_2">
	<g id="_Group_3">
		<path id="_Compound_Path_" class="st0" d="M32.6,72C18.2,63.4,0,51,0,28.9V5.7C6.6,3.2,16.9,0,32.6,0c11.1-0.1,22.2,1.8,32.6,5.7
			v23.2C65.2,51.1,46.3,63.9,32.6,72z"/>
	</g>
	<g id="_Group_4">
		<path id="_Compound_Path_2" class="st1" d="M42.4,41.8c0-0.5,0.4-1.3,0.4-2s-1-1-1.8-1.1c-1.6-0.2-2.2-0.1-2.2-0.5
			c0.1-0.4,0.2-0.7,0.5-0.9c0.5-0.6,1.2-0.9,2-1c0.8-0.1,1.7-0.2,2.5-0.2c0.8,0,1.6,0.1,2.4,0.2c1,0.2,1.2,0.6,1.2,1.1v0.5
			c-0.1,0.5-0.6,0.9-1.1,0.9l-0.5,0.1c-0.6,0-1.1,0.3-1.3,0.8c-0.5,1.4-1.3,2.4-1.9,2.4C42.4,42.1,42.3,42,42.4,41.8
			C42.4,41.8,42.4,41.8,42.4,41.8L42.4,41.8L42.4,41.8z M43.8,19.9c-0.2,0-0.3-0.2-0.2-0.4c0.1-0.4,0.3-0.7,0.5-1
			c0.8-1.1,2-2.4,2.3-2.4c0.3,0.1,0.5,0.3,0.6,0.6c0.2,0.4,0.3,0.8,0.3,1.2c0,1.3-0.5,2.6-1.3,3.6C45.3,20.8,44.6,20.3,43.8,19.9
			L43.8,19.9z M19.9,22.5c0.5-0.1,0.9-0.4,1.2-0.9c1.2-1.4,2.5-1.6,2.5-2.1c0-0.3-0.2-0.6-0.3-0.8c-1-1.5-1.9-3.1-2.7-4.7
			c-0.2-0.4-0.6-0.7-1-0.9c-0.5,0.1-1,0.5-1.2,1c-0.4,0.6-0.7,1.3-0.8,2c0,1.4,0.3,2.7,0.7,4C18.7,21.4,19.3,22.5,19.9,22.5z
			 M34.8,27.3c-0.2-1.3-1.3-2.2-2.6-2.1c-1.3,0-2.4,0.8-2.9,2c0.4,0.9,1.2,1.6,2.1,1.8c0.2,0.1,0.4,0.1,0.4,0.2
			c0,0.2-0.2,0.3-0.7,0.3c-1.1,0.1-2.2-0.4-3-1.2c-0.5,0.1-1,0.2-1.5,0.2c-0.3,0-0.6-0.2-0.7-0.6l0,0c0-0.3,0.1-0.7,0.2-1l0.3-0.5
			c0.4-1,1.1-1.9,2-2.4l0.8-0.5c0.7-0.4,1.6-0.7,2.5-0.6h0.7c0.8-0.1,1.7,0.2,2.3,0.8c1.1,0.9,1.6,1.4,1.6,2
			c0.1,0.7-0.2,1.5-0.6,2.1c-0.4,0.6-1,1-1.7,1.2c-0.1,0-0.2,0-0.2-0.1c0,0,0,0,0-0.1c0-0.1,0.1-0.2,0.2-0.2
			C34.4,28.2,34.6,27.8,34.8,27.3L34.8,27.3L34.8,27.3L34.8,27.3z M42,50.2c-1.1,0.2-2.2,0.3-3.3,0.2c-3.7,0-4.3-0.9-4.3-1.6
			c0-1.2,5.3-2,7.4-2s2.9,0.6,2.9,1.1C44.3,49.1,43.2,50,42,50.2L42,50.2z M20.6,61c3.8,2.9,7.8,5.6,12,8.1l0,0
			c0-3.6-0.1-5.8,2.4-8.3l3-3.1c0.4-0.6,1-1,1.6-1.3c0.3,0,0.3,0.1,0.3,0.4c0.1,1,0.3,2.1,0.8,3c0.5,1.1,1.5,1.9,2.7,2.1
			c10.5-8,19.3-18.3,19.3-33V7.4c-2.6-0.9-13.2-5-30.1-5S5.1,6.6,2.5,7.4v21.5c0,6,1.5,11.8,4.5,17c0.3-3,2.3-4.4,2.3-7.3
			c0-2-0.6-3.3-0.6-5c0-3.1,4.2-9.4,6.3-12c0.1-0.1,0.2-0.2,0.4-0.3c0.2,0,0.3,0.1,0.4,0.2c0.1,0.3,0.3,0.5,0.5,0.5
			c0.2,0,0.3-0.1,0.3-0.3c0,0,0,0,0-0.1c-0.4-1.6-0.7-3.3-0.6-5c0-2.5,0.6-3,2.1-4.5c0.5-0.6,1.2-1,2-1.1c0.8,0.1,1.5,0.5,1.9,1.1
			c0.9,0.9,1.7,1.9,2.5,2.9c0,0.1,0.1,0.1,0.2,0.1c0.4,0,0.8-0.1,2.7-0.1c3.8,0,7.6,0.4,11.3,1.4c0.7,0.3,1.3,0.5,2,0.8
			c0.1,0,0.2,0,0.2-0.1c0,0,0,0,0-0.1c-0.2-0.2-0.3-0.4-0.4-0.6c0-0.1,0.1-0.3,0.2-0.3c2-1.1,3.7-1.9,5.2-1.9c0.9,0,1.3,0.8,1.7,1.6
			c0.4,0.7,0.6,1.4,0.6,2.2c0,1.6-0.5,3.1-1.4,4.3c0.3,0.3,0.7,0.8,1,1.1c0.6,0.6,0.9,1.3,1,2.1c0,0.4-0.1,0.9-0.2,1.3
			c0,0.3-0.2,0.5-0.5,0.5c-0.3,0-0.4-0.3-0.4-0.6v-0.2c0-1.6-1.2-2.9-2.7-3.2h-0.2c-0.8,0-1.6,0.3-2.1,0.9c-0.4,0.4-0.7,0.9-0.7,1.5
			c0.1,0.5,0.3,1,0.6,1.5c0.2,0.4,0.7,1.3,1,1.8c0.2,0.4,0.5,0.6,0.9,0.6c0.9,0,1.6-0.1,1.6-0.4c0-0.1,0-0.1-0.2-0.1h-0.2
			c-1.1,0-1.7-1.4-2.3-2.7c0.4-0.5,1.1-0.8,1.8-0.8c0.9-0.1,1.8,0.6,1.8,1.6c0,0,0,0,0,0l0,0v0.1c0,0.4-0.1,0.7-0.2,1.1
			c0,0.1-0.1,0.1-0.1,0.2c0,0.1,0.2,0.2,0.5,0.2l0.4,0.1c0.4,0.1,0.7,0.4,0.8,0.8c0.1,0.3,0.3,0.9,0.4,1c0.3,0.7,0.5,1.5,0.5,2.3
			c0,0.8-0.1,1.5-0.3,2.3c-0.3,0.8-0.5,1.6-0.6,2.5c0.1,0.1,0.1,0.3,0.2,0.4c0.3,0.6,0.4,1.3,0.4,2v0.7c0,1.1-0.4,2.1-1.1,3
			c-0.4,0.6-1,1.4-1.4,1.8c-0.2,0.3-0.5,0.5-0.9,0.5c-0.2,0-0.4,0-0.5-0.1l-0.9-0.2c-0.6-0.2-1.1-0.7-1.3-1.3L42.9,44
			c-0.2-0.5-0.3-0.8-0.6-0.8c-0.3,0-0.5,0.2-0.6,0.5c-0.5,1-1.4,1.7-2.5,1.9L37.4,46c-1,0.3-2,0.5-3,0.5h-0.5
			c-1.3-0.1-2.5-0.7-3.2-1.8c-1.8-2.2-1.7-2.5-1.8-5.5c0.1-0.3-0.1-0.7-0.5-0.7c-0.3,0-0.4,0.6-0.6,1.5c-0.1,1.1-0.4,2.1-0.9,2.1
			c-0.4,0-0.8-0.1-1.2-0.3l-3.2-1c-1.2-0.4-2.4-0.7-2.8-1.8l-0.8-1.9c0-0.3-0.2-0.5-0.5-0.5C18.2,36.7,18,37,18,37.3
			c0,0.5-0.1,1.1-0.2,1.6c0,1.5-0.6,2.9-1.5,4.1c-0.4,0.5-0.8,1.1-1.2,1.7c-1.1,1.4-1.6,3.1-1.4,4.9V51C13.7,54.5,14.6,56.2,20.6,61
			z"/>
		<path id="_Compound_Path_3" class="st2" d="M48.5,29.7L48.5,29.7c0.1,0.3,0.3,0.9,0.4,1c0.3,0.7,0.5,1.5,0.5,2.3
			c0,0.8-0.1,1.5-0.3,2.3c-0.3,0.8-0.4,1.6-0.5,2.5c-0.1-0.2-1.9-3.3-2-3.6c-0.2-0.2-0.2-0.5-0.3-0.8c0-0.3,0.2-0.6,0.5-0.8
			c0.2-0.1,0.5-0.3,0.7-0.4c0.7-0.3,1.2-0.9,1.2-1.7C48.7,30.3,48.6,30,48.5,29.7z M40.7,34.7c0.1,0.2,0.2,0.5,0.2,0.7
			c0,0.3-0.1,0.7-0.4,0.9L40,36.8c-0.3,0.1-0.5,0.3-0.6,0.5c-0.3,0.3-0.4,0.6-0.5,0.9c0,0.1,0,0.1,0.1,0.2c-0.3-0.2-0.5-0.6-0.5-1
			c0-0.3,0.1-0.5,0.1-0.8c0-0.2-0.1-0.4-0.1-0.6c-0.5-1.7-1.3-3.7-1.9-5c-0.5-1.3-1-2.1-1.5-2.1c-0.3,0-0.6,0.2-1,0.2
			c0.7-0.1,1.3-0.5,1.7-1.1c0.5-0.6,0.7-1.3,0.6-2.1c0-0.3-0.1-0.7-0.4-0.9c0.7,0.8,1.3,1.8,1.8,2.9C38.8,30.2,39.8,32.8,40.7,34.7
			L40.7,34.7L40.7,34.7z M13.7,51v-1.5c-0.1-1.7,0.4-3.5,1.4-4.9l1.2-1.7c0.9-1.2,1.5-2.6,1.5-4.1c0-0.5,0.1-1.1,0.2-1.6
			c-0.1-0.3,0.1-0.6,0.4-0.7c0,0,0,0,0,0l0,0c0.3,0,0.3,0.2,0.5,0.5l0.8,1.9c0.5,1.1,1.6,1.4,2.8,1.8l3.2,1.1
			c0.4,0.1,0.8,0.2,1.2,0.2c0.5,0,0.8-1.1,0.9-2.1c0.1-0.9,0.2-1.5,0.6-1.5c0.3,0.1,0.5,0.4,0.5,0.7c0.1,3-0.1,3.3,1.8,5.5
			c0.7,1.1,1.9,1.8,3.2,1.8c-0.6-0.2-1-0.9-0.9-1.5v-1.1c0-0.6,0.1-1.2,0.3-1.7c0.1-0.3,0.3-0.8,0.4-1.1c0.2-0.3,0.2-0.7,0.2-1
			c-0.1-0.6-0.2-1.2-0.5-1.8c-0.2-0.5-0.4-1.2-0.6-1.8c-0.7-1.9-1-2.3-3.2-2.6l-4.5-0.6c-2.5-0.4-4.5-0.5-5.5-2.2
			c-1.2-2-1.1-4.5-2.3-4.5c-0.6,0-0.9,0.6-0.9,1.5s0.4,2.5,0.4,5.2c0.2,1.7-0.4,3.4-1.6,4.7c-0.3,0.4-0.8,1.1-1.1,1.5
			c-1,1.3-1.5,2-1.4,3.5C12.8,45.6,13.1,48.3,13.7,51z M39.3,60c0.1-0.9,0.5-2.5,0.5-3.1l0,0c0-0.3-0.1-0.4-0.3-0.4
			c-0.6,0.3-1.2,0.7-1.6,1.3l-3,3.1c-2.4,2.5-2.3,4.6-2.3,8.2l0,0c2.7-1.6,5.2-3.2,7.1-4.5C39.3,63,39.2,61.4,39.3,60L39.3,60
			L39.3,60z"/>
	</g>
</g>
<path id="_Compound_Path_4" class="st1" d="M217.4,21.4h11.1c0-5.7-2.8-9-7.6-9s-7.9,3.2-7.9,8.2c0,1.9,0.6,8.1,8.6,8.1
	c2,0.1,3.9-0.3,5.7-1v-2.9c-1.5,0.6-3.1,1-4.8,0.9C219.5,25.8,217.5,24,217.4,21.4z M201.7,15.6h2.2v8.9c0,2.7,1.9,4.3,5,4.3
	c1.1,0,2.3-0.2,3.4-0.5v-2.7c-0.6,0.1-1.2,0.2-1.7,0.2c-1.9,0-2.7-0.8-2.7-3v-7.2h4.3v-2.8h-4.3V9.4h-4v3.4h-2.2L201.7,15.6z
	 M189.7,15.8c0.8-0.3,1.7-0.5,2.6-0.5c2.3,0,3.4,1,3.4,3.2v0.9h-2.1c-5.2,0-8,1.7-8,5c0,2.7,2,4.5,5.2,4.5c2.1,0.1,4-0.8,5.2-2.5
	h0.1l0.1,2.2h4.9v-2.8h-1.6v-7.1c0-4.1-2.4-6.1-7.1-6.1c-2.1,0.1-4.1,0.6-5.9,1.6v3.8h3.3L189.7,15.8z M173.7,15.6h2.2v8.9
	c0,2.7,1.9,4.3,5,4.3c1.1,0,2.3-0.2,3.4-0.5v-2.7c-0.6,0.1-1.2,0.2-1.7,0.2c-1.9,0-2.7-0.8-2.7-3v-7.2h4.3v-2.8h-4.3V9.4h-4v3.4
	h-2.2L173.7,15.6z M160.5,25v-2.7h-3.7v5.4c2.3,0.8,4.7,1.2,7.1,1.1c5.3,0,8.2-2.3,8.2-6.6s-3.2-5.5-6.2-6.3l-2.1-0.6
	c-1.7-0.4-2.6-1.3-2.6-2.8s1.1-2.7,3.6-2.7c0.9,0,1.8,0.2,2.7,0.5V13h3.7V8.1c-2.1-0.7-4.3-1.1-6.5-1.1c-5,0-7.8,2.1-7.8,5.9
	c0,3.4,1.6,5.2,5.5,6.3l1.8,0.5c2.5,0.7,3.6,1.6,3.6,3.2c0,1.7-1.2,2.7-3.5,2.7C163,25.6,161.7,25.4,160.5,25L160.5,25L160.5,25
	L160.5,25z M102,21.4h11.1c0-5.7-2.8-9-7.6-9s-7.9,3.2-7.9,8.2c0,1.9,0.6,8.1,8.6,8.1c2,0.1,3.9-0.3,5.7-1v-2.9
	c-1.5,0.6-3.1,1-4.8,0.9C104.2,25.9,102.2,24.1,102,21.4L102,21.4L102,21.4z M126,28.4h7.5v-2.8h-1.8v-7c0-3.8-2.4-6.2-6-6.2
	c-2-0.1-3.9,0.8-5,2.5h-0.1l-0.1-2.1H115v2.8h2.1v10h-1.7v2.8h7.5v-2.8h-1.8v-6.3c0-2.3,1.2-3.6,3.4-3.6c2.2,0,3.4,1.3,3.4,3.6v6.3
	h-1.7L126,28.4z M79.4,28.4h8.3v-2.8h-2v-5.4h3.4c4.8,0,7.7-2.4,7.7-6.4s-2.9-6.4-7.7-6.4h-9.6v2.8h2.1v15.4h-2.1L79.4,28.4z
	 M192,26c-1.8,0-2.5-1.1-2.5-2.1c0-1.6,1.4-2.3,4.7-2.3h1.3v0.2C195.6,24.7,193.8,26,192,26L192,26L192,26z M217.3,18.8
	c0.1-2.3,1.4-3.8,3.4-3.8c1.8-0.1,3.3,1.4,3.4,3.2c0,0.1,0,0.3,0,0.4v0.2L217.3,18.8L217.3,18.8z M101.9,18.8
	c0.2-2.3,1.6-3.7,3.5-3.7c1.8-0.1,3.3,1.4,3.4,3.2c0,0.1,0,0.3,0,0.4v0.2L101.9,18.8L101.9,18.8z M88.6,17.4h-3v-7.2h2.9
	c2.4,0,3.9,1.4,3.9,3.6S91,17.4,88.6,17.4z M146.4,28.4h7.5v-2.8h-1.8v-7c0-3.8-2.4-6.2-6-6.2c-2-0.1-3.9,0.8-5,2.5H141l-0.1-2.1
	h-5.6v2.8h2.1v10h-1.7v2.8h7.5v-2.8h-1.9v-6.3c0-2.3,1.2-3.6,3.4-3.6s3.4,1.3,3.4,3.6v6.3h-1.7L146.4,28.4z M82.6,56.4l-4.2-16.8
	h2.3l2,8.5c0.5,2.1,0.9,4.2,1.2,5.8l0,0c0.3-1.7,0.8-3.7,1.4-5.8l2.2-8.4h2.3l2,8.5c0.5,2,0.9,4,1.2,5.7l0,0
	c0.3-1.8,0.8-3.7,1.3-5.8l2.2-8.4h2.2l-4.6,16.8h-2.3l-2.1-8.7c-0.5-1.8-0.8-3.6-1.1-5.5l0,0c-0.3,1.8-0.8,3.7-1.3,5.5l-2.4,8.7
	L82.6,56.4L82.6,56.4z M110.9,50.2c0,4.4-3.1,6.4-6,6.4c-3.3,0-5.8-2.4-5.8-6.2c0-4,2.6-6.4,6-6.4C108.5,44.1,110.9,46.6,110.9,50.2
	L110.9,50.2L110.9,50.2z M101.3,50.4c0,2.6,1.5,4.6,3.7,4.6s3.7-2,3.7-4.7c0-2-1-4.6-3.6-4.6S101.4,48.1,101.3,50.4L101.3,50.4
	L101.3,50.4z M113.6,48.1c0-1.4,0-2.6-0.1-3.8h1.9v2.4h0.1c0.4-1.5,1.8-2.6,3.4-2.7c0.2,0,0.4,0,0.6,0.1v2.1
	c-0.2-0.1-0.5-0.1-0.7-0.1c-1.5,0.1-2.8,1.3-2.9,2.8c-0.1,0.3-0.1,0.7-0.1,1v6.4h-2.2L113.6,48.1z M121.9,38.7h2.2v17.6h-2.2V38.7
	L121.9,38.7L121.9,38.7z M138.1,38.7v14.5c0,1,0,2.1,0.1,3.1h-2l-0.1-2.1l0,0c-0.8,1.5-2.4,2.4-4.1,2.4c-2.9,0-5.1-2.5-5.1-6.1
	c0-4,2.5-6.5,5.4-6.5c1.5-0.1,2.9,0.6,3.7,1.8l0,0v-7.1L138.1,38.7L138.1,38.7z M135.9,49.2c0-0.3,0-0.6-0.1-0.9
	c-0.3-1.5-1.6-2.5-3.2-2.5c-2.3,0-3.6,2-3.6,4.6c0,2.4,1.2,4.4,3.6,4.4c1.5,0,2.9-1.1,3.2-2.6c0.1-0.3,0.1-0.7,0.1-1V49.2
	L135.9,49.2z M158.8,55.8c-1.4,0.6-2.9,0.8-4.4,0.8c-4.7,0-8.3-3-8.3-8.5c0-5.2,3.6-8.8,8.7-8.8c1.4-0.1,2.7,0.2,4,0.7l-0.5,1.8
	c-1.1-0.5-2.2-0.7-3.4-0.7c-3.9,0-6.5,2.5-6.5,7c0,4.1,2.4,6.7,6.4,6.7c1.2,0,2.4-0.2,3.5-0.7L158.8,55.8z M167.9,56.4l-0.2-1.5
	h-0.1c-0.9,1.2-2.2,1.8-3.7,1.8c-1.9,0.1-3.5-1.3-3.7-3.2v-0.3c0-2.9,2.6-4.5,7.2-4.5v-0.2c0.2-1.4-0.8-2.6-2.1-2.8
	c-0.2,0-0.4,0-0.6,0c-1.1,0-2.2,0.3-3.1,0.9l-0.5-1.4c1.2-0.7,2.6-1.1,4-1.1c3.7,0,4.6,2.5,4.6,5v4.5c0,1,0.1,1.9,0.2,2.9
	L167.9,56.4z M167.6,50.2c-2.4,0-5.1,0.4-5.1,2.7c0,1.1,0.8,2,1.9,2.1h0.2c1.3,0,2.5-0.8,2.9-2c0.1-0.2,0.1-0.5,0.1-0.7L167.6,50.2
	L167.6,50.2L167.6,50.2z M173.3,47.6c0-1.2,0-2.3-0.1-3.3h1.9l0.1,2h0.1c0.7-1.4,2.2-2.3,3.8-2.2c1.5,0,2.9,1,3.4,2.4l0,0
	c0.3-0.6,0.8-1.2,1.3-1.7c0.8-0.6,1.7-0.9,2.7-0.8c1.6,0,4,1,4,5.2v7.1h-2.1v-6.8c0-2.3-0.8-3.7-2.6-3.7c-1.2,0.1-2.2,0.9-2.6,2
	c-0.1,0.4-0.2,0.7-0.2,1.1v7.4h-2.1v-7.2c0-1.9-0.8-3.3-2.5-3.3c-1.7,0.2-2.9,1.6-2.9,3.3v7.3h-2.1L173.3,47.6z M194,48.2
	c0-1.5,0-2.8-0.1-4h2l0.1,2.1l0,0c0.9-1.5,2.5-2.4,4.3-2.3c2.9,0,5.1,2.5,5.1,6.1c0,4.3-2.6,6.5-5.5,6.5c-1.5,0.1-2.9-0.7-3.7-1.9
	l0,0v6.6H194L194,48.2L194,48.2z M196.2,51.4c0,0.3,0,0.6,0.1,0.9c0.4,1.5,1.7,2.6,3.3,2.6c2.3,0,3.7-1.9,3.7-4.6
	c0-2.4-1.3-4.5-3.6-4.5c-1.6,0.1-2.9,1.2-3.3,2.7c-0.1,0.3-0.1,0.6-0.1,0.9L196.2,51.4L196.2,51.4L196.2,51.4z M218.2,53.1
	c0,1.2,0,2.3,0.1,3.3h-1.9l-0.1-2l0,0c-0.8,1.4-2.4,2.3-4,2.2c-1.9,0-4.1-1-4.1-5.3v-7h2.2V51c0,2.3,0.7,3.8,2.7,3.8
	c1.3,0,2.4-0.8,2.9-2c0.1-0.4,0.2-0.7,0.2-1.1v-7.4h2.2L218.2,53.1L218.2,53.1L218.2,53.1z M221.6,54.1c0.9,0.5,1.9,0.8,2.9,0.9
	c1.6,0,2.3-0.8,2.3-1.8s-0.6-1.6-2.2-2.2c-2.2-0.8-3.2-2-3.2-3.4c0-2,1.6-3.5,4.1-3.5c1,0,2.1,0.2,3,0.7l-0.5,1.6
	c-0.7-0.5-1.6-0.7-2.5-0.7c-0.9-0.1-1.8,0.5-2,1.4c0,0.1,0,0.1,0,0.2c0,0.9,0.7,1.4,2.3,2c2.1,0.8,3.2,1.8,3.2,3.6
	c0,2.1-1.6,3.6-4.5,3.6c-1.2,0-2.3-0.3-3.4-0.8L221.6,54.1z"/>
</svg>
